# xmcd
#
# Track frame offsets:
#	150
#	12694
#	24539
#	37720
#	49497
#	62651
#	76326
#	91664
#	104330
#	117063
#	130430
#	143355
#	157842
#	170549
#	184370
#	197353
#	207887
#	221695
#	233388
#	244925
#
# Disc length: 3420
#
# Revision: 2
# Processed by: cddbd v1.5.1PL0 Copyright (c) Steve Scherf et al.
# Submitted via: ExactAudioCopy v0.95a5
# Normalized: r0:TRMNUM;r1:TDELIM( - )
#
DISCID=040d5a14
DTITLE=Various Artist - The best of blues classics - Disk 3
DYEAR=1900
DGENRE=Blues
TTITLE0=John Lee Hooker - The story of a married woman
TTITLE1=Bis Moten - Turn it over
TTITLE2=Julia Lee - Oh chuck it (in a bucket)
TTITLE3=Walter Brown - New style baby
TTITLE4=Joe Turner - Miss Brown blues
TTITLE5=T-Bone Walker - Stormy Monday
TTITLE6=King Cole Trio - Don't blame me
TTITLE7=T-Bone Walker - Hypin' woman blues
TTITLE8=Amos Milburn - Chicken shack boogie
TTITLE9=Joe Turner - I'm sharp when I hit the coast
TTITLE10=Ella Mae Morse with Don Raye - The house of blue lights
TTITLE11=Jay McShann's Kansas City Stompers - Merry-go-round-blues
TTITLE12=Bis Moten - It's hard to laugh or smile
TTITLE13=Walter Brown - What evil have I done
TTITLE14=Julia Lee - Ugly papa
TTITLE15=Bis Moten - On the gravy train
TTITLE16=Floyd Dixon - Married woman
TTITLE17=Julia Lee - After hours waltz
TTITLE18=Amos Milburn - Money hustlin' woman
TTITLE19=Li'l Son Jackson - Ticket agent blues
EXTD=
EXTT0=
EXTT1=
EXTT2=
EXTT3=
EXTT4=
EXTT5=
EXTT6=
EXTT7=
EXTT8=
EXTT9=
EXTT10=
EXTT11=
EXTT12=
EXTT13=
EXTT14=
EXTT15=
EXTT16=
EXTT17=
EXTT18=
EXTT19=
PLAYORDER=
